<svg xmlns="http://www.w3.org/2000/svg" xmlns:xlink="http://www.w3.org/1999/xlink" width="24" height="22" viewBox="0 0 24 22"><defs><path id="5tkea" d="M715 35h20a2 2 0 0 1 0 4h-20a2 2 0 0 1 0-4z"/><path id="5tkeb" d="M715 44h20a2 2 0 1 1 0 4h-20a2 2 0 1 1 0-4z"/><path id="5tkec" d="M715 52.999h20a2 2 0 0 1 0 4h-20a2 2 0 1 1 0-4z"/></defs><g><g transform="translate(-713 -35)"><use fill="#fff" xlink:href="#5tkea"/></g><g transform="translate(-713 -35)"><use fill="#fff" xlink:href="#5tkeb"/></g><g transform="translate(-713 -35)"><use fill="#fff" xlink:href="#5tkec"/></g></g></svg>